<?xml version="1.0" encoding="UTF-8"?>
<svg version="1.1" xmlns="http://www.w3.org/2000/svg" width="96" height="96">
<path d="M0 0 C1.61672607 -0.00472824 1.61672607 -0.00472824 3.26611328 -0.009552 C4.43899902 -0.00752777 5.61188477 -0.00550354 6.8203125 -0.00341797 C8.0151123 -0.00437469 9.20991211 -0.00533142 10.44091797 -0.00631714 C12.9729823 -0.00699918 15.50504838 -0.00514325 18.03710938 -0.00097656 C21.9284251 0.00437132 25.81962539 -0.00092079 29.7109375 -0.00732422 C32.16406276 -0.00666344 34.61718794 -0.00538229 37.0703125 -0.00341797 C38.24319824 -0.0054422 39.41608398 -0.00746643 40.62451172 -0.009552 C41.7023291 -0.00639984 42.78014648 -0.00324768 43.890625 0 C44.84469238 0.00079559 45.79875977 0.00159119 46.78173828 0.00241089 C48.9453125 0.12939453 48.9453125 0.12939453 49.9453125 1.12939453 C50.04487528 3.30202133 50.07330969 5.47792559 50.07470703 7.65283203 C50.07645935 8.3341217 50.07821167 9.01541138 50.08001709 9.71734619 C50.08443492 11.9797212 50.08149788 14.24201866 50.078125 16.50439453 C50.07879806 18.06998713 50.0797681 19.63557963 50.08102417 21.20117188 C50.08250105 24.48650098 50.08034691 27.77180295 50.07568359 31.05712891 C50.0699863 35.27759969 50.07326536 39.49800689 50.07925606 43.71847534 C50.08286194 46.95256025 50.08172296 50.18662998 50.07912827 53.42071533 C50.07845907 54.97731534 50.07928716 56.53391671 50.08160782 58.09051514 C50.0841348 60.26236649 50.08029315 62.43411349 50.07470703 64.60595703 C50.07391144 65.8442627 50.07311584 67.08256836 50.07229614 68.35839844 C49.9453125 71.12939453 49.9453125 71.12939453 48.9453125 72.12939453 C47.26276015 72.22814623 45.57607222 72.25738357 43.890625 72.25878906 C42.27389893 72.2635173 42.27389893 72.2635173 40.62451172 72.26834106 C39.45162598 72.26631683 38.27874023 72.2642926 37.0703125 72.26220703 C35.8755127 72.26316376 34.68071289 72.26412048 33.44970703 72.2651062 C30.9176427 72.26578824 28.38557662 72.26393231 25.85351562 72.25976562 C21.9621999 72.25441774 18.07099961 72.25970986 14.1796875 72.26611328 C11.72656224 72.2654525 9.27343706 72.26417135 6.8203125 72.26220703 C5.64742676 72.26423126 4.47454102 72.26625549 3.26611328 72.26834106 C2.1882959 72.2651889 1.11047852 72.26203674 0 72.25878906 C-0.95406738 72.25799347 -1.90813477 72.25719788 -2.89111328 72.25637817 C-5.0546875 72.12939453 -5.0546875 72.12939453 -6.0546875 71.12939453 C-6.12782317 68.59890051 -6.14716277 66.09634616 -6.1171875 63.56689453 C-6.11267578 62.85597656 -6.10816406 62.14505859 -6.10351562 61.41259766 C-6.09169614 59.6514944 -6.07376013 57.89043417 -6.0546875 56.12939453 C-7.3746875 56.12939453 -8.6946875 56.12939453 -10.0546875 56.12939453 C-10.0546875 54.80939453 -10.0546875 53.48939453 -10.0546875 52.12939453 C-8.7346875 52.12939453 -7.4146875 52.12939453 -6.0546875 52.12939453 C-6.0546875 49.48939453 -6.0546875 46.84939453 -6.0546875 44.12939453 C-7.3746875 44.12939453 -8.6946875 44.12939453 -10.0546875 44.12939453 C-10.0546875 42.80939453 -10.0546875 41.48939453 -10.0546875 40.12939453 C-8.7346875 40.12939453 -7.4146875 40.12939453 -6.0546875 40.12939453 C-6.0546875 37.48939453 -6.0546875 34.84939453 -6.0546875 32.12939453 C-7.3746875 32.12939453 -8.6946875 32.12939453 -10.0546875 32.12939453 C-10.0546875 30.80939453 -10.0546875 29.48939453 -10.0546875 28.12939453 C-8.7346875 28.12939453 -7.4146875 28.12939453 -6.0546875 28.12939453 C-6.0546875 25.48939453 -6.0546875 22.84939453 -6.0546875 20.12939453 C-7.3746875 20.12939453 -8.6946875 20.12939453 -10.0546875 20.12939453 C-10.0546875 18.80939453 -10.0546875 17.48939453 -10.0546875 16.12939453 C-8.7346875 16.12939453 -7.4146875 16.12939453 -6.0546875 16.12939453 C-6.06628906 15.05818359 -6.07789063 13.98697266 -6.08984375 12.88330078 C-6.09922049 11.4861671 -6.10832081 10.08903154 -6.1171875 8.69189453 C-6.12975586 7.63131836 -6.12975586 7.63131836 -6.14257812 6.54931641 C-6.15122338 4.74245894 -6.10688761 2.9355185 -6.0546875 1.12939453 C-4.37456408 -0.55072888 -2.30381558 0.00192114 0 0 Z " fill="#3E50B4" transform="translate(26.0546875,11.87060546875)"/>
<path d="M0 0 C9.24 0 18.48 0 28 0 C28 6.6 28 13.2 28 20 C18.76 20 9.52 20 0 20 C0 13.4 0 6.8 0 0 Z " fill="#FFFFFF" transform="translate(36,30)"/>
<path d="M0 0 C6.6 0 13.2 0 20 0 C20 1.32 20 2.64 20 4 C13.4 4 6.8 4 0 4 C0 2.68 0 1.36 0 0 Z " fill="#03A9F4" transform="translate(40,42)"/>
<path d="M0 0 C6.6 0 13.2 0 20 0 C20 1.32 20 2.64 20 4 C13.4 4 6.8 4 0 4 C0 2.68 0 1.36 0 0 Z " fill="#03A9F4" transform="translate(40,34)"/>
<path d="M0 0 C3.63 0 7.26 0 11 0 C11 1.32 11 2.64 11 4 C7.37 4 3.74 4 0 4 C0 2.68 0 1.36 0 0 Z " fill="#AEBCC4" transform="translate(16,64)"/>
<path d="M0 0 C3.63 0 7.26 0 11 0 C11 1.32 11 2.64 11 4 C7.37 4 3.74 4 0 4 C0 2.68 0 1.36 0 0 Z " fill="#AEBCC4" transform="translate(16,52)"/>
<path d="M0 0 C3.63 0 7.26 0 11 0 C11 1.32 11 2.64 11 4 C7.37 4 3.74 4 0 4 C0 2.68 0 1.36 0 0 Z " fill="#AEBCC4" transform="translate(16,40)"/>
<path d="M0 0 C3.63 0 7.26 0 11 0 C11 1.32 11 2.64 11 4 C7.37 4 3.74 4 0 4 C0 2.68 0 1.36 0 0 Z " fill="#AEBCC4" transform="translate(16,28)"/>
<path d="M0 0 C1.67542976 0.28604898 3.34385343 0.61781233 5 1 C5.625 3.375 5.625 3.375 6 6 C5.34 6.66 4.68 7.32 4 8 C1.375 7.625 1.375 7.625 -1 7 C0.32 6.34 1.64 5.68 3 5 C3 4.34 3 3.68 3 3 C1.68 2.34 0.36 1.68 -1 1 C-0.67 0.67 -0.34 0.34 0 0 Z " fill="#202A84" transform="translate(24,62)"/>
<path d="M0 0 C1.67542976 0.28604898 3.34385343 0.61781233 5 1 C5.625 3.375 5.625 3.375 6 6 C5.34 6.66 4.68 7.32 4 8 C1.375 7.625 1.375 7.625 -1 7 C0.32 6.34 1.64 5.68 3 5 C3 4.34 3 3.68 3 3 C1.68 2.34 0.36 1.68 -1 1 C-0.67 0.67 -0.34 0.34 0 0 Z " fill="#202A84" transform="translate(24,50)"/>
<path d="M0 0 C1.67542976 0.28604898 3.34385343 0.61781233 5 1 C5.625 3.375 5.625 3.375 6 6 C5.34 6.66 4.68 7.32 4 8 C1.375 7.625 1.375 7.625 -1 7 C0.32 6.34 1.64 5.68 3 5 C3 4.34 3 3.68 3 3 C1.68 2.34 0.36 1.68 -1 1 C-0.67 0.67 -0.34 0.34 0 0 Z " fill="#202A84" transform="translate(24,38)"/>
<path d="M0 0 C1.67542976 0.28604898 3.34385343 0.61781233 5 1 C5.625 3.375 5.625 3.375 6 6 C5.34 6.66 4.68 7.32 4 8 C1.375 7.625 1.375 7.625 -1 7 C0.32 6.34 1.64 5.68 3 5 C3 4.34 3 3.68 3 3 C1.68 2.34 0.36 1.68 -1 1 C-0.67 0.67 -0.34 0.34 0 0 Z " fill="#202A84" transform="translate(24,26)"/>
</svg>
